<svg width="60" height="60" viewBox="0 0 60 60" fill="none" xmlns="http://www.w3.org/2000/svg">
<path d="M30 60C46.5685 60 60 46.5685 60 30C60 13.4315 46.5685 0 30 0C13.4315 0 0 13.4315 0 30C0 46.5685 13.4315 60 30 60Z" fill="#F2F2F2"/>
<mask id="mask0_1825_6357" style="mask-type:alpha" maskUnits="userSpaceOnUse" x="0" y="0" width="60" height="60">
<path d="M30 60C46.5685 60 60 46.5685 60 30C60 13.4315 46.5685 0 30 0C13.4315 0 0 13.4315 0 30C0 46.5685 13.4315 60 30 60Z" fill="white"/>
</mask>
<g mask="url(#mask0_1825_6357)">
<path d="M29.9991 60.1521H52.3081V53.0471C52.3081 50.7001 50.7031 47.7311 48.7441 46.4521L37.8741 39.8511C37.0241 39.3471 36.0491 38.6141 36.0491 36.4661C36.0491 35.0601 37.2351 33.9471 37.5911 33.5061C39.3366 31.6133 40.3043 29.1319 40.3011 26.5571V21.2921C40.3011 15.5841 35.6911 12.3081 29.9991 12.3081C24.3071 12.3081 19.6971 15.5841 19.6971 21.2921V26.5571C19.6971 29.2471 20.7291 31.6751 22.4071 33.5051C22.7641 33.9471 23.9501 35.0601 23.9501 36.4651C23.9501 38.6141 22.9741 39.3471 22.1241 39.8511L11.2531 46.4521C9.29412 47.7321 7.69312 50.7001 7.69312 53.0471V60.1521H29.9991V60.1521Z" fill="black" fill-opacity="0.1"/>
</g>
</svg>
