<svg width="131" height="178" viewBox="0 0 131 178" >
<path fill-rule="evenodd" clip-rule="evenodd" d="M0 130.168V44.9736L44.9736 0H106.397C119.652 0 130.397 10.7452 130.397 24V112.29V130.168V153.259C130.397 166.514 119.652 177.259 106.397 177.259H24C10.7452 177.259 5.65451e-06 166.514 5.65451e-06 153.259V130.184C1.88504e-06 130.179 0 130.173 0 130.168Z" fill="#DDDDDD"/>
<path fill-rule="evenodd" clip-rule="evenodd" d="M3.78368 46.8613C1.10262 46.8613 -0.232063 43.6127 1.67461 41.7278L41.7542 2.10714C43.649 0.234005 46.8633 1.57625 46.8633 4.24064V22.8613C46.8633 36.1161 36.1181 46.8613 22.8633 46.8613H3.78368Z" fill="#79747E"/>
</svg>
