<svg width="53" height="49" viewBox="0 0 53 49" fill="none" xmlns="http://www.w3.org/2000/svg">
<path d="M41.3392 49.0017C40.9708 49.0031 40.6114 48.8883 40.3121 48.6735L26.2454 38.4754L12.1787 48.6735C11.8782 48.8915 11.5161 49.0083 11.1448 49.0069C10.7736 49.0056 10.4124 48.8862 10.1135 48.666C9.81453 48.4459 9.59335 48.1364 9.48191 47.7822C9.37047 47.4281 9.37454 47.0477 9.49353 46.696L14.9798 30.4462L0.761027 20.6954C0.453039 20.4844 0.220587 20.1805 0.0976357 19.828C-0.025316 19.4755 -0.0323244 19.093 0.0776346 18.7362C0.187594 18.3794 0.408757 18.0672 0.708812 17.8451C1.00887 17.623 1.37209 17.5026 1.7454 17.5017H19.287L24.5807 1.21026C24.6948 0.858537 24.9173 0.551971 25.2163 0.334543C25.5154 0.117115 25.8757 0 26.2454 0C26.6152 0 26.9754 0.117115 27.2745 0.334543C27.5735 0.551971 27.7961 0.858537 27.9101 1.21026L33.2038 17.5071H50.7454C51.1192 17.507 51.4832 17.6265 51.7842 17.8481C52.0851 18.0698 52.3072 18.382 52.4178 18.7391C52.5285 19.0961 52.5219 19.4792 52.3991 19.8322C52.2763 20.1852 52.0436 20.4896 51.7353 20.7009L37.511 30.4462L42.994 46.6917C43.0828 46.9547 43.1078 47.2351 43.0669 47.5096C43.026 47.7842 42.9203 48.0451 42.7586 48.2708C42.597 48.4965 42.3839 48.6805 42.1371 48.8075C41.8903 48.9346 41.6168 49.0012 41.3392 49.0017Z" fill="#FFC23D"/>
</svg>
